<svg version="1" xmlns="http://www.w3.org/2000/svg" width="85.333" height="85.333" viewBox="0 0 64.000000 64.000000"><path d="M.6 2.9c-.3.4 2 8.8 5.1 18.7 5.5 17.9 5.7 19 6.2 38.2.1 2.1.5 2.3 4.8 2l4.8-.3.1-10c.1-9.7.6-12.5 5.4-28 2.6-8.4 6-20.3 6-20.9 0-.2-2-.4-4.5-.4-4.3-.1-4.5 0-5.4 3.6-.5 2-2 7.6-3.2 12.4-1.3 4.9-2.6 8.8-2.9 8.8-.3 0-1.6-4.2-2.9-9.3C9.6.4 10.5 2.2 5.5 2.2 3 2.2.8 2.5.6 2.9zM41.2 19.2l.3 17.3 2.8-.1c1.5-.1 3.2-.2 3.8-.3.6 0 1-1.6.9-3.4-.1-1.7-.2-4.7-.1-6.5L49 23h6.8c7.3 0 7 .3 6.3-6.3-.1-.4-3-.7-6.5-.7-6.8 0-7.6-.6-6.8-4.8.4-2.1 1-2.3 5.1-2.2C64 9.4 64 9.4 64 5.5V2H41l.2 17.2zM41 53.5V62h23V45H41v8.5z"/></svg>